<?xml version="1.0" standalone="no"?>
<!DOCTYPE svg PUBLIC "-//W3C//DTD SVG 20010904//EN"
 "http://www.w3.org/TR/2001/REC-SVG-20010904/DTD/svg10.dtd">
<svg version="1.0" xmlns="http://www.w3.org/2000/svg"
 width="600.000000pt" height="600.000000pt" viewBox="0 0 600.000000 600.000000"
 preserveAspectRatio="xMidYMid meet">

<g transform="translate(0.000000,600.000000) scale(0.100000,-0.100000)"
fill="#000000" stroke="none">
<path d="M372 4783 c2 -16 10 -29 18 -30 132 -17 124 11 130 -448 5 -375 5
-381 29 -425 47 -91 115 -138 229 -160 78 -16 230 -8 294 15 62 22 139 92 169
152 24 47 24 53 29 430 5 379 5 383 27 405 15 14 40 24 70 28 43 4 48 8 51 33
l3 27 -196 0 -196 0 3 -27 c3 -25 8 -29 51 -33 30 -4 55 -14 70 -28 22 -22 22
-26 25 -373 3 -397 -1 -432 -62 -493 -85 -85 -281 -90 -374 -10 -69 59 -72 77
-72 485 l0 358 23 27 c17 19 37 29 68 33 39 5 44 9 47 34 l3 27 -221 0 -221 0
3 -27z"/>
<path d="M1500 4781 c0 -30 2 -31 41 -31 31 0 47 -6 70 -29 l29 -29 0 -422 0
-422 -29 -29 c-23 -23 -39 -29 -70 -29 -39 0 -41 -2 -41 -30 l0 -30 218 2 217
3 0 25 c0 22 -5 26 -49 32 -88 12 -91 20 -91 231 l0 182 55 3 c30 1 60 -1 66
-5 6 -5 63 -93 125 -198 63 -104 128 -203 145 -221 38 -37 97 -54 188 -54 l66
0 0 29 c0 25 -5 30 -33 35 -20 4 -48 21 -69 44 -36 37 -247 362 -255 392 -3
11 11 23 47 40 60 28 133 104 151 157 16 48 7 189 -14 230 -27 51 -85 101
-146 125 -53 21 -73 23 -338 26 l-283 3 0 -30z m545 -68 c60 -32 78 -71 83
-181 9 -191 -57 -257 -251 -250 l-82 3 -3 215 c-1 118 0 221 3 228 9 23 199
12 250 -15z"/>
<path d="M2492 4783 c3 -25 7 -29 51 -33 30 -4 55 -14 70 -28 22 -22 22 -24
25 -420 2 -218 0 -411 -3 -429 -9 -51 -34 -73 -90 -81 -45 -6 -50 -10 -50 -32
l0 -25 300 0 c264 0 306 2 352 18 77 27 127 68 157 128 22 44 26 66 26 136 0
90 -12 131 -55 188 -27 34 -114 85 -147 85 -30 0 -20 14 27 39 58 31 111 89
124 138 39 141 -27 271 -162 319 -45 16 -92 19 -340 22 l-288 3 3 -28z m520
-53 c87 -25 126 -100 115 -221 -7 -77 -32 -119 -87 -146 -37 -19 -60 -23 -147
-23 l-103 0 0 200 0 200 93 0 c50 0 109 -5 129 -10z m74 -499 c52 -29 70 -61
84 -145 12 -79 0 -167 -28 -205 -47 -64 -98 -80 -249 -81 l-103 0 0 231 0 231
128 -4 c111 -3 132 -6 168 -27z"/>
<path d="M3875 4798 c-157 -429 -351 -941 -366 -965 -22 -35 -37 -43 -80 -43
-26 0 -29 -4 -29 -30 l0 -30 186 0 185 0 -3 28 c-3 24 -8 28 -52 33 -35 4 -54
12 -68 29 -25 30 -21 57 23 179 l33 91 202 0 202 0 36 -101 c20 -55 36 -113
36 -128 0 -37 -31 -63 -83 -70 -37 -5 -42 -9 -42 -31 l0 -25 208 -3 207 -2 0
30 c0 27 -3 30 -34 30 -19 0 -44 8 -56 18 -15 12 -74 161 -200 507 l-178 490
-61 3 c-43 2 -63 -1 -66 -10z m71 -246 c17 -53 54 -161 82 -239 l51 -143 -169
0 c-98 0 -170 4 -170 9 0 5 29 88 64 183 36 96 73 202 82 236 10 34 20 59 23
56 3 -3 20 -49 37 -102z"/>
<path d="M4532 4783 c2 -21 9 -29 28 -31 50 -5 71 -13 90 -32 19 -19 20 -35
20 -446 l0 -426 -29 -29 c-23 -23 -39 -29 -70 -29 -39 0 -41 -2 -41 -30 l0
-30 190 0 190 0 0 30 c0 28 -3 30 -35 30 -47 0 -93 25 -100 53 -3 12 -4 186
-3 386 l3 365 249 -385 c137 -211 263 -405 279 -431 30 -48 30 -48 83 -48 l54
0 0 465 c0 556 -2 543 100 555 40 4 45 8 48 33 l3 27 -190 0 c-113 0 -192 -4
-196 -10 -12 -20 15 -50 45 -50 42 0 77 -19 89 -49 8 -17 10 -142 9 -376 l-3
-350 -141 220 c-78 121 -198 309 -268 418 l-128 197 -140 0 -139 0 3 -27z"/>
<path d="M404 2395 c-11 -28 5 -44 50 -50 28 -5 53 -16 68 -32 l23 -25 0 -423
0 -423 -24 -26 c-14 -14 -35 -26 -47 -26 -44 0 -76 -18 -72 -43 3 -22 4 -22
221 -25 l217 -2 0 29 c0 27 -4 31 -37 36 -102 18 -104 22 -101 272 l3 198 243
3 242 2 0 -214 0 -215 -25 -19 c-14 -11 -45 -23 -70 -26 -42 -7 -45 -9 -45
-37 l0 -29 220 0 220 0 0 29 c0 28 -3 30 -47 37 -29 4 -56 16 -70 30 l-24 24
3 431 3 431 23 18 c13 11 43 22 67 26 41 6 45 9 45 35 l0 29 -220 0 -220 0 0
-29 c0 -26 4 -29 44 -35 25 -4 56 -16 70 -27 l26 -20 0 -185 0 -184 -245 0
-245 0 0 169 c0 93 4 181 10 196 11 28 62 55 105 55 21 0 25 5 25 30 l0 30
-215 0 c-182 0 -217 -2 -221 -15z"/>
<path d="M1855 1929 c-102 -273 -189 -495 -202 -510 -15 -18 -38 -30 -63 -34
-36 -6 -40 -10 -40 -36 l0 -29 185 0 185 0 0 29 c0 27 -3 30 -49 36 -94 13
-105 59 -48 210 l34 90 200 3 200 2 37 -102 c54 -154 47 -190 -42 -204 -38 -6
-42 -9 -42 -35 l0 -29 205 0 205 0 0 30 c0 27 -4 30 -40 36 -21 4 -47 15 -56
25 -10 11 -97 239 -195 507 l-177 487 -59 3 -59 3 -179 -482z m230 259 c9 -34
46 -143 81 -242 35 -99 64 -181 64 -183 0 -2 -76 -3 -170 -3 -93 0 -170 4
-170 8 0 5 31 94 69 197 39 104 76 210 82 237 7 26 16 48 20 48 3 0 14 -28 24
-62z"/>
<path d="M2500 2381 c0 -26 4 -30 39 -36 72 -12 53 32 364 -870 l52 -150 56
-3 56 -3 41 118 c22 65 98 282 167 483 70 200 136 377 147 392 13 19 31 30 58
34 40 7 54 22 44 49 -5 13 -35 15 -185 15 l-179 0 0 -29 c0 -27 3 -29 49 -35
64 -8 85 -32 79 -88 -3 -24 -53 -180 -111 -348 -57 -168 -110 -331 -117 -362
-7 -32 -16 -58 -20 -58 -4 0 -12 26 -19 58 -7 31 -62 204 -122 383 -60 180
-109 335 -109 345 0 39 28 63 81 70 47 6 50 8 47 33 l-3 26 -207 3 -208 2 0
-29z"/>
<path d="M3586 2402 c-3 -5 -3 -18 0 -30 5 -15 17 -22 47 -27 58 -10 73 -20
86 -56 14 -41 15 -816 1 -853 -10 -28 -34 -41 -92 -51 -34 -5 -38 -9 -38 -35
l0 -30 405 0 405 0 0 38 c0 22 3 80 6 130 l7 92 -41 0 c-40 0 -40 -1 -47 -42
-9 -55 -28 -91 -61 -117 -25 -20 -39 -21 -206 -21 l-178 0 2 228 3 227 183 3
182 2 0 35 0 35 -185 0 -185 0 2 203 3 202 150 0 c127 0 155 -3 178 -18 34
-22 52 -59 61 -120 l7 -48 37 3 37 3 -4 120 c-2 66 -5 123 -8 128 -6 10 -751
9 -757 -1z"/>
<path d="M4537 2403 c-4 -3 -7 -16 -7 -29 0 -19 7 -23 49 -29 33 -4 56 -15 73
-32 l23 -25 0 -423 0 -423 -23 -25 c-16 -17 -39 -27 -73 -31 -47 -6 -50 -8
-47 -34 l3 -27 188 -3 187 -2 0 29 c0 28 -3 30 -47 37 -28 4 -56 16 -70 30
l-23 23 0 371 c0 203 3 370 8 370 4 0 131 -193 283 -428 l276 -427 54 0 54 0
5 488 5 489 23 18 c13 11 43 22 67 26 41 6 45 9 45 35 l0 29 -190 0 -190 0 0
-29 c0 -27 3 -30 49 -36 33 -4 56 -15 73 -32 l23 -25 3 -354 c2 -205 -1 -354
-6 -354 -5 0 -129 187 -276 415 l-268 415 -132 0 c-73 0 -136 -3 -139 -7z"/>
</g>
</svg>
