<?xml version="1.0" standalone="no"?>
<!DOCTYPE svg PUBLIC "-//W3C//DTD SVG 20010904//EN"
 "http://www.w3.org/TR/2001/REC-SVG-20010904/DTD/svg10.dtd">
<svg version="1.0" xmlns="http://www.w3.org/2000/svg"
 width="600.000000pt" height="600.000000pt" viewBox="0 0 600.000000 600.000000"
 preserveAspectRatio="xMidYMid meet">

<g transform="translate(0.000000,600.000000) scale(0.100000,-0.100000)"
fill="#000000" stroke="none">
<path d="M370 4780 c0 -28 3 -30 35 -30 51 0 91 -24 104 -61 7 -21 11 -151 11
-379 0 -409 2 -423 85 -506 66 -66 119 -85 262 -91 95 -5 122 -2 182 16 92 28
148 72 186 146 l30 59 5 375 c4 268 8 382 17 397 14 24 52 42 98 46 24 2 31 8
33 31 l3 27 -196 0 -196 0 3 -27 c3 -25 8 -29 52 -35 29 -4 58 -15 70 -28 20
-20 21 -31 24 -371 3 -399 -1 -428 -64 -491 -45 -45 -108 -68 -188 -68 -113 0
-183 35 -226 110 l-25 45 0 377 c0 372 0 378 21 399 14 13 39 23 68 26 43 5
46 8 46 34 l0 29 -220 0 -220 0 0 -30z"/>
<path d="M1500 4782 c0 -28 3 -30 47 -35 35 -4 53 -12 70 -32 l23 -26 0 -420
0 -421 -29 -29 c-23 -23 -39 -29 -70 -29 -39 0 -41 -2 -41 -30 l0 -30 221 0
220 0 -3 27 c-3 25 -8 29 -52 35 -87 12 -90 20 -94 229 l-4 180 69 -3 68 -3
112 -185 c61 -102 124 -200 140 -218 37 -43 90 -61 186 -62 l77 0 0 29 c0 24
-5 29 -32 35 -48 9 -101 72 -220 263 -60 93 -108 173 -108 176 0 4 22 18 49
31 70 36 106 70 135 128 22 43 26 66 26 133 0 133 -50 209 -174 259 -47 19
-75 21 -333 24 l-283 3 0 -29z m489 -53 c99 -21 140 -83 141 -209 0 -182 -62
-240 -257 -240 l-83 0 0 223 c0 123 3 227 7 230 10 11 137 8 192 -4z"/>
<path d="M2492 4783 c3 -24 8 -29 43 -34 56 -7 81 -24 94 -60 7 -21 11 -163
11 -421 0 -470 1 -462 -98 -476 -42 -6 -47 -10 -50 -35 l-3 -27 280 0 c295 0
354 6 431 45 56 29 83 58 109 115 62 142 15 308 -104 370 -28 15 -62 30 -75
34 -25 7 -25 8 10 23 96 41 150 122 150 224 0 82 -24 142 -75 187 -79 70 -112
76 -438 80 l-288 3 3 -28z m553 -71 c62 -31 80 -71 80 -172 0 -104 -19 -144
-85 -177 -37 -19 -60 -23 -147 -23 l-103 0 0 201 0 202 108 -5 c81 -4 117 -10
147 -26z m1 -467 c90 -27 124 -86 124 -219 0 -92 -10 -128 -43 -164 -42 -46
-75 -55 -209 -60 l-128 -5 0 232 0 231 103 0 c62 0 123 -6 153 -15z"/>
<path d="M3869 4783 c-6 -15 -67 -179 -135 -363 -69 -184 -146 -390 -171 -457
-53 -142 -76 -173 -128 -173 -32 0 -35 -2 -35 -30 l0 -30 185 0 185 0 0 30 c0
29 -2 30 -43 30 -23 0 -52 7 -64 15 -37 26 -36 58 3 175 l38 110 201 0 201 0
33 -91 c18 -50 35 -105 38 -123 7 -46 -22 -78 -78 -85 -39 -5 -44 -9 -47 -33
l-3 -28 210 0 211 0 0 30 c0 27 -3 30 -33 30 -70 0 -52 -39 -326 715 l-109
300 -61 3 c-59 3 -62 2 -72 -25z m56 -174 c4 -17 38 -118 76 -225 38 -107 69
-199 69 -205 0 -5 -69 -9 -166 -9 l-165 0 7 23 c3 12 37 105 74 207 37 102 71
200 75 218 8 38 21 34 30 -9z"/>
<path d="M4530 4781 c0 -26 3 -29 47 -34 35 -4 53 -12 70 -32 l23 -26 0 -420
0 -421 -29 -29 c-23 -23 -39 -29 -70 -29 -39 0 -41 -2 -41 -30 l0 -30 190 0
190 0 0 30 c0 28 -3 30 -35 30 -47 0 -93 25 -100 53 -3 12 -4 185 -3 384 l3
362 276 -427 277 -427 56 -3 56 -3 0 464 c0 313 4 474 11 496 13 36 38 53 94
60 35 5 40 10 43 34 l3 27 -196 0 -196 0 3 -27 c3 -25 8 -29 51 -35 58 -8 85
-29 92 -72 3 -17 4 -182 3 -366 l-3 -334 -41 64 c-22 36 -143 224 -268 418
l-228 352 -139 0 -139 0 0 -29z"/>
<path d="M407 2403 c-13 -12 -7 -51 9 -57 9 -3 29 -6 44 -6 16 0 41 -11 57
-24 l28 -24 0 -427 0 -427 -27 -23 c-14 -12 -47 -26 -73 -29 -43 -7 -46 -9
-43 -34 l3 -27 218 -3 217 -2 0 29 c0 30 -18 41 -67 41 -11 0 -33 14 -47 31
l-26 31 2 202 3 201 243 3 242 2 0 -214 0 -215 -25 -19 c-14 -11 -45 -23 -70
-26 -42 -7 -45 -9 -45 -37 l0 -29 220 0 220 0 0 30 c0 26 -4 30 -37 35 -59 10
-83 23 -93 51 -6 15 -10 190 -10 430 0 484 -4 466 105 476 26 3 30 7 33 36 l3
32 -220 0 -221 0 0 -29 c0 -31 14 -41 61 -41 18 0 39 -10 54 -25 25 -24 25
-26 25 -205 l0 -180 -245 0 -245 0 0 175 0 175 28 29 c19 22 38 31 67 33 37 4
40 6 43 36 l3 32 -214 0 c-117 0 -217 -3 -220 -7z"/>
<path d="M1865 1958 c-168 -452 -202 -534 -227 -555 -7 -6 -30 -14 -50 -18
-34 -6 -38 -11 -38 -36 l0 -29 185 0 185 0 0 29 c0 26 -4 29 -42 35 -24 4 -53
14 -65 22 -33 21 -29 79 11 189 l33 90 196 3 c183 2 197 1 206 -16 23 -43 71
-188 71 -214 0 -38 -29 -64 -79 -73 -37 -6 -41 -10 -41 -36 l0 -29 205 0 205
0 0 29 c0 25 -5 30 -44 40 -24 6 -49 17 -55 25 -7 8 -92 234 -190 503 l-178
488 -60 3 -59 3 -169 -453z m339 -122 c14 -37 26 -70 26 -72 0 -2 -76 -4 -170
-4 -93 0 -170 2 -170 5 0 2 34 97 75 210 41 113 75 209 75 214 0 6 5 22 10 37
10 25 16 11 69 -147 33 -96 71 -205 85 -243z"/>
<path d="M2500 2381 c0 -30 14 -41 54 -41 13 0 31 -9 42 -21 10 -11 96 -239
189 -507 l170 -487 58 -3 c31 -2 57 -1 57 1 0 2 48 140 106 308 58 167 130
374 158 459 78 230 87 243 161 254 24 3 40 28 32 50 -6 14 -29 16 -187 16
l-181 0 3 -32 c3 -31 5 -33 52 -39 54 -6 76 -26 76 -70 0 -14 -46 -159 -102
-320 -56 -162 -111 -332 -124 -379 -21 -80 -23 -84 -33 -57 -6 16 -11 35 -11
44 0 8 -52 173 -116 365 -79 238 -114 357 -110 373 7 28 32 44 78 49 18 2 36
4 41 5 4 0 7 15 7 31 l0 30 -210 0 -210 0 0 -29z"/>
<path d="M3583 2394 c-10 -27 12 -49 56 -55 24 -3 51 -15 64 -28 22 -21 22
-24 25 -431 3 -454 1 -474 -55 -485 -82 -17 -88 -20 -88 -45 l0 -25 408 -3
407 -2 0 38 c0 22 3 80 6 130 l7 92 -41 0 -41 0 -11 -56 c-8 -35 -22 -67 -40
-87 l-28 -32 -186 -3 -186 -3 2 228 3 228 183 3 182 2 0 35 0 35 -185 0 -185
0 0 200 0 200 153 0 c203 0 219 -10 242 -142 6 -37 7 -38 47 -38 l41 0 -7 46
c-3 26 -6 84 -6 130 l0 84 -380 0 c-343 0 -381 -2 -387 -16z"/>
<path d="M4530 2381 c0 -31 14 -41 59 -41 16 0 40 -9 55 -21 l26 -20 0 -430 0
-430 -25 -24 c-13 -14 -34 -25 -47 -25 -50 0 -68 -11 -68 -41 l0 -29 190 0
190 0 0 30 c0 26 -4 30 -37 35 -109 19 -104 -6 -101 431 l3 369 95 -145 c52
-80 178 -273 280 -430 l186 -285 57 -3 57 -3 0 486 0 486 25 24 c15 15 36 25
54 25 47 0 61 10 61 41 l0 29 -191 0 -190 0 3 -32 c3 -30 6 -33 43 -36 48 -3
83 -24 90 -55 3 -12 4 -176 3 -365 l-3 -343 -268 415 -269 416 -139 0 -139 0
0 -29z"/>
</g>
</svg>
